<svg width="186" height="171" viewBox="0 0 186 171" fill="none" xmlns="http://www.w3.org/2000/svg">
<rect x="4.5" y="66.5" width="177" height="37" rx="18.5" fill="#0D46F2" stroke="#E0E7FF" stroke-width="9"/>
<path d="M13.5 75.0942C13.5 72.5504 14.0261 70.0335 15.0449 67.7026C23.0512 49.3864 50.3691 55.1203 50.3691 75.0942L50.3691 117.518C50.3693 124.324 55.8817 129.835 62.6738 129.834C69.4646 129.833 74.9755 124.323 74.9756 117.518L74.9756 53.2974C74.9756 26.3773 96.7625 4.53791 123.67 4.50048C150.63 4.46324 172.5 26.3245 172.5 53.2974L172.5 110.625C172.5 113.914 171.621 117.143 169.954 119.978C160.426 136.181 135.631 129.407 135.631 110.625L135.631 53.1587C135.631 46.3513 130.105 40.8459 123.312 40.8706C116.542 40.8952 111.065 46.4042 111.081 53.188L111.233 117.361C111.297 144.436 89.3627 166.415 62.2998 166.378C35.3345 166.341 13.5 144.455 13.5 117.477L13.5 75.0942Z" fill="#0D46F2" stroke="#E0E7FF" stroke-width="9"/>
<g filter="url(#filter0_d_3_34)">
<path d="M71 62H115V108H71V62Z" fill="#0D46F2"/>
</g>
<mask id="path-4-outside-1_3_34" maskUnits="userSpaceOnUse" x="46" y="62" width="94" height="46" fill="black">
<rect fill="white" x="46" y="62" width="94" height="46"/>
<path d="M46 71H140V99H46V71Z"/>
</mask>
<path d="M46 71H140V99H46V71Z" fill="#0D46F2"/>
<path d="M46 71V80H140V71V62H46V71ZM140 99V90H46V99V108H140V99Z" fill="#E0E7FF" mask="url(#path-4-outside-1_3_34)"/>
<path d="M9 85C9 77.268 15.268 71 23 71H163C170.732 71 177 77.268 177 85V85C177 92.732 170.732 99 163 99H23C15.268 99 9 92.732 9 85V85Z" fill="#F7116D"/>
<path d="M45.3125 71C45.6707 72.2583 45.8691 73.6246 45.8691 75.0938V99H23C21.2382 99 19.5529 98.6731 18 98.0791V75.0938C18 73.972 18.1358 72.8574 18.4014 71.7734C19.8418 71.2727 21.389 71 23 71H45.3125ZM106.689 99H79.4756V71H106.623L106.689 99ZM163 71C164.762 71 166.447 71.326 168 71.9199V98.0791C166.447 98.6731 164.762 99 163 99H140.131V71H163Z" fill="#0D46F2"/>
<path d="M63 85C63 77.268 69.268 71 77 71H111C118.732 71 125 77.268 125 85V85C125 92.732 118.732 99 111 99H77C69.268 99 63 92.732 63 85V85Z" fill="#F7116D"/>
<defs>
<filter id="filter0_d_3_34" x="63" y="54" width="60" height="62" filterUnits="userSpaceOnUse" color-interpolation-filters="sRGB">
<feFlood flood-opacity="0" result="BackgroundImageFix"/>
<feColorMatrix in="SourceAlpha" type="matrix" values="0 0 0 0 0 0 0 0 0 0 0 0 0 0 0 0 0 0 127 0" result="hardAlpha"/>
<feOffset/>
<feGaussianBlur stdDeviation="4"/>
<feComposite in2="hardAlpha" operator="out"/>
<feColorMatrix type="matrix" values="0 0 0 0 0.0804749 0 0 0 0 0.12322 0 0 0 0 0.252206 0 0 0 0.3 0"/>
<feBlend mode="normal" in2="BackgroundImageFix" result="effect1_dropShadow_3_34"/>
<feBlend mode="normal" in="SourceGraphic" in2="effect1_dropShadow_3_34" result="shape"/>
</filter>
</defs>
</svg>
